<?xml version="1.0" encoding="UTF-8" standalone="no"?>
<!-- Created with Inkscape (http://www.inkscape.org/) -->

<svg
   width="48"
   height="48"
   viewBox="0 0 48 48"
   version="1.1"
   id="svg1"
   inkscape:version="1.4.2 (2aeb623e1d, 2025-05-12)"
   sodipodi:docname="FlowerMail.svg"
   xmlns:inkscape="http://www.inkscape.org/namespaces/inkscape"
   xmlns:sodipodi="http://sodipodi.sourceforge.net/DTD/sodipodi-0.dtd"
   xmlns="http://www.w3.org/2000/svg"
   xmlns:svg="http://www.w3.org/2000/svg">
  <sodipodi:namedview
     id="namedview1"
     pagecolor="#ffffff"
     bordercolor="#000000"
     borderopacity="0.25"
     inkscape:showpageshadow="2"
     inkscape:pageopacity="0.0"
     inkscape:pagecheckerboard="0"
     inkscape:deskcolor="#d1d1d1"
     inkscape:document-units="px"
     inkscape:zoom="27.871792"
     inkscape:cx="28.003222"
     inkscape:cy="32.057501"
     inkscape:window-width="1366"
     inkscape:window-height="699"
     inkscape:window-x="0"
     inkscape:window-y="0"
     inkscape:window-maximized="1"
     inkscape:current-layer="layer1" />
  <defs
     id="defs1" />
  <g
     inkscape:label="Layer 1"
     inkscape:groupmode="layer"
     id="layer1">
    <path
       style="fill:#aa4400"
       d="M 1.2916285,15.78657 H 45.924567 c 0,0 0,15.930084 -22.531741,8.180314 C 0.86108564,16.217113 1.2916285,15.78657 1.2916285,15.78657 Z"
       id="path1" />
    <path
       style="fill:#aa4400"
       d="m 1.7221713,16.79117 c 0,0 32.0036827,10.76357 31.2861117,15.643056 -0.717572,4.879485 -21.383627,4.735971 -21.383627,4.735971 0,0 -2.3106841,0.829546 -7.3192278,-0.287029 -7.396205,-1.648867 -1.578657,-5.597057 -2.5832569,-20.091998 z"
       id="path2"
       sodipodi:nodetypes="cscsc" />
    <path
       style="fill:#aa4400"
       d="m 45.35051,21.957684 c 0,0 -8.036799,7.606257 -12.916284,6.314628 -4.879485,-1.291628 4.735971,3.587857 3.587856,4.735971 -1.148114,1.148114 -9.615456,3.157314 -8.467342,3.587857 1.148115,0.430542 16.217113,2.296228 15.78657,-0.287029 -0.430542,-2.583257 2.0092,-14.351427 2.0092,-14.351427 z"
       id="path3"
       sodipodi:nodetypes="cssssc" />
  </g>
</svg>
