<?xml version="1.0" encoding="UTF-8" standalone="no"?>
<!-- Created with Inkscape (http://www.inkscape.org/) -->

<svg
   width="48"
   height="48"
   viewBox="0 0 48 48"
   version="1.1"
   id="svg1"
   inkscape:version="1.4.2 (2aeb623e1d, 2025-05-12)"
   sodipodi:docname="FlowerMail.svg"
   xml:space="preserve"
   xmlns:inkscape="http://www.inkscape.org/namespaces/inkscape"
   xmlns:sodipodi="http://sodipodi.sourceforge.net/DTD/sodipodi-0.dtd"
   xmlns:xlink="http://www.w3.org/1999/xlink"
   xmlns="http://www.w3.org/2000/svg"
   xmlns:svg="http://www.w3.org/2000/svg"><sodipodi:namedview
     id="namedview1"
     pagecolor="#000000"
     bordercolor="#000000"
     borderopacity="0.25"
     inkscape:showpageshadow="2"
     inkscape:pageopacity="0.0"
     inkscape:pagecheckerboard="0"
     inkscape:deskcolor="#d1d1d1"
     inkscape:document-units="px"
     inkscape:zoom="7.4393526"
     inkscape:cx="11.089675"
     inkscape:cy="25.069386"
     inkscape:window-width="1366"
     inkscape:window-height="707"
     inkscape:window-x="0"
     inkscape:window-y="0"
     inkscape:window-maximized="1"
     inkscape:current-layer="layer1" /><defs
     id="defs1"><linearGradient
       id="linearGradient358"
       inkscape:collect="always"><stop
         style="stop-color:#ffffff;stop-opacity:1;"
         offset="0.18049236"
         id="stop357" /><stop
         style="stop-color:#1c1c1c;stop-opacity:1;"
         offset="0.77420509"
         id="stop358" /></linearGradient><linearGradient
       id="linearGradient355"
       inkscape:collect="always"><stop
         style="stop-color:#ffffff;stop-opacity:1;"
         offset="0"
         id="stop354" /><stop
         style="stop-color:#1c1c1c;stop-opacity:1;"
         offset="0.49267605"
         id="stop355" /></linearGradient><linearGradient
       id="linearGradient5"
       inkscape:collect="always"><stop
         style="stop-color:#ffffff;stop-opacity:1;"
         offset="0"
         id="stop5" /><stop
         style="stop-color:#ffffff;stop-opacity:0.11895833;"
         offset="1"
         id="stop6" /></linearGradient><linearGradient
       id="linearGradient2"
       inkscape:collect="always"><stop
         style="stop-color:#ffffff;stop-opacity:1;"
         offset="0.33255708"
         id="stop2" /><stop
         style="stop-color:#1c1c1c;stop-opacity:1;"
         offset="0.59473729"
         id="stop3" /></linearGradient><linearGradient
       inkscape:collect="always"
       xlink:href="#linearGradient2"
       id="linearGradient3"
       x1="38.034115"
       y1="5.5747461"
       x2="31.410625"
       y2="15.394473"
       gradientUnits="userSpaceOnUse" /><linearGradient
       inkscape:collect="always"
       xlink:href="#linearGradient5"
       id="linearGradient6"
       x1="16.219128"
       y1="43.258354"
       x2="31.780884"
       y2="4.7416534"
       gradientUnits="userSpaceOnUse" /><linearGradient
       inkscape:collect="always"
       xlink:href="#linearGradient355"
       id="linearGradient353"
       x1="43.037716"
       y1="20.522581"
       x2="40.919674"
       y2="21.170134"
       gradientUnits="userSpaceOnUse" /><linearGradient
       inkscape:collect="always"
       xlink:href="#linearGradient358"
       id="linearGradient357"
       x1="4.9155512"
       y1="32.799995"
       x2="14.021149"
       y2="28.160461"
       gradientUnits="userSpaceOnUse" /><filter
       inkscape:collect="always"
       style="color-interpolation-filters:sRGB"
       id="filter361"
       x="-0.094985131"
       y="-0.094985131"
       width="1.1899703"
       height="1.1899703"><feGaussianBlur
         inkscape:collect="always"
         stdDeviation="1.5776393"
         id="feGaussianBlur361" /></filter><filter
       inkscape:collect="always"
       style="color-interpolation-filters:sRGB"
       id="filter363"
       x="-0.094985131"
       y="-0.094985131"
       width="1.1899703"
       height="1.1899703"><feGaussianBlur
         inkscape:collect="always"
         stdDeviation="1.5776393"
         id="feGaussianBlur363" /></filter><filter
       inkscape:collect="always"
       style="color-interpolation-filters:sRGB"
       id="filter364"
       x="-2.0560243"
       y="-0.45345828"
       width="5.1120487"
       height="1.9069166"><feGaussianBlur
         inkscape:collect="always"
         stdDeviation="1.5776393"
         id="feGaussianBlur364" /></filter><filter
       inkscape:collect="always"
       style="color-interpolation-filters:sRGB"
       id="filter366"
       x="-0.31966395"
       y="-0.38820755"
       width="1.6393279"
       height="1.7764151"><feGaussianBlur
         inkscape:collect="always"
         stdDeviation="1.5776393"
         id="feGaussianBlur366" /></filter><filter
       inkscape:collect="always"
       style="color-interpolation-filters:sRGB"
       id="filter367"
       x="-0.37050261"
       y="-0.19999905"
       width="1.7410052"
       height="1.3999981"><feGaussianBlur
         inkscape:collect="always"
         stdDeviation="1.5776393"
         id="feGaussianBlur367" /></filter><filter
       inkscape:collect="always"
       style="color-interpolation-filters:sRGB"
       id="filter361-2"
       x="-0.015234138"
       y="-0.015234138"
       width="1.0304683"
       height="1.0304683"><feGaussianBlur
         inkscape:collect="always"
         stdDeviation="0.20055283"
         id="feGaussianBlur361-6" /></filter><filter
       inkscape:collect="always"
       style="color-interpolation-filters:sRGB"
       id="filter366-7"
       x="-0.033564922"
       y="-0.040762044"
       width="1.0671298"
       height="1.0815241"><feGaussianBlur
         inkscape:collect="always"
         stdDeviation="0.16565316"
         id="feGaussianBlur366-9" /></filter><filter
       inkscape:collect="always"
       style="color-interpolation-filters:sRGB"
       id="filter364-7"
       x="-0.26136614"
       y="-0.057644568"
       width="1.5227323"
       height="1.1152891"><feGaussianBlur
         inkscape:collect="always"
         stdDeviation="0.20055283"
         id="feGaussianBlur364-5" /></filter><filter
       inkscape:collect="always"
       style="color-interpolation-filters:sRGB"
       id="filter367-2"
       x="-0.053923955"
       y="-0.029108405"
       width="1.1078479"
       height="1.0582168"><feGaussianBlur
         inkscape:collect="always"
         stdDeviation="0.22961392"
         id="feGaussianBlur367-8" /></filter><linearGradient
       inkscape:collect="always"
       xlink:href="#linearGradient5"
       id="linearGradient367"
       gradientUnits="userSpaceOnUse"
       x1="16.219128"
       y1="43.258354"
       x2="31.780884"
       y2="4.7416534"
       gradientTransform="translate(5.3521196,-6.6478804)" /><linearGradient
       inkscape:collect="always"
       xlink:href="#linearGradient2"
       id="linearGradient368"
       gradientUnits="userSpaceOnUse"
       x1="38.034115"
       y1="5.5747461"
       x2="31.410625"
       y2="15.394473"
       gradientTransform="translate(5.3521196,-6.6478804)" /><linearGradient
       inkscape:collect="always"
       xlink:href="#linearGradient5"
       id="linearGradient369"
       gradientUnits="userSpaceOnUse"
       x1="16.219128"
       y1="43.258354"
       x2="31.780884"
       y2="4.7416534"
       gradientTransform="translate(5.3521196,-6.6478804)" /><linearGradient
       inkscape:collect="always"
       xlink:href="#linearGradient355"
       id="linearGradient370"
       gradientUnits="userSpaceOnUse"
       x1="43.037716"
       y1="20.522581"
       x2="40.919674"
       y2="21.170134"
       gradientTransform="translate(5.3521196,-6.6478804)" /><linearGradient
       inkscape:collect="always"
       xlink:href="#linearGradient358"
       id="linearGradient371"
       gradientUnits="userSpaceOnUse"
       x1="4.9155512"
       y1="32.799995"
       x2="14.021149"
       y2="28.160461"
       gradientTransform="translate(5.3521196,-6.6478804)" /><inkscape:perspective
       sodipodi:type="inkscape:persp3d"
       inkscape:vp_x="0 : 24 : 1"
       inkscape:vp_y="0 : 1000 : 0"
       inkscape:vp_z="48 : 24 : 1"
       inkscape:persp3d-origin="24 : 16 : 1"
       id="perspective8" /><inkscape:path-effect
       effect="perspective-envelope"
       up_left_point="5.57,7.4138612"
       up_right_point="19.77247,7.4138612"
       down_left_point="4.4651541,38.304951"
       down_right_point="19.77247,38.304951"
       id="path-effect2"
       is_visible="true"
       lpeversion="1"
       deform_type="perspective"
       horizontal_mirror="false"
       vertical_mirror="false"
       overflow_perspective="false" /><linearGradient
       inkscape:collect="always"
       xlink:href="#linearGradient5"
       id="linearGradient374"
       gradientUnits="userSpaceOnUse"
       x1="16.219128"
       y1="43.258354"
       x2="31.780884"
       y2="4.7416534" /><filter
       inkscape:collect="always"
       style="color-interpolation-filters:sRGB"
       id="filter380"
       x="-0.084102599"
       y="-0.17476948"
       width="1.1682052"
       height="1.349539"><feGaussianBlur
         inkscape:collect="always"
         stdDeviation="1.592147"
         id="feGaussianBlur380" /></filter></defs><g
     inkscape:label="Layer 1"
     inkscape:groupmode="layer"
     id="layer1"><g
       id="g372"
       transform="matrix(1.1090316,0,0,1.1090316,-2.6167584,-2.6167584)"><circle
         style="fill:#00007e;fill-opacity:0;stroke:url(#linearGradient374);stroke-width:0.3;stroke-dasharray:none;stroke-dashoffset:7.42;stroke-opacity:1;filter:url(#filter361)"
         id="path1"
         r="20.720793"
         cy="24"
         cx="24" /><path
         style="fill:url(#linearGradient3);fill-opacity:1;stroke:none;stroke-width:0.1;stroke-dasharray:none;stroke-opacity:1;filter:url(#filter366)"
         d="m 28.8,5.6079208 c 0,0 6.938614,1.2356436 11.120792,7.9841582 C 44.10297,20.340594 28.8,5.6079208 28.8,5.6079208 Z"
         id="path2" /><circle
         style="fill:#00007e;fill-opacity:0;stroke:url(#linearGradient6);stroke-width:0.3;stroke-dasharray:none;stroke-dashoffset:7.42;stroke-opacity:1;filter:url(#filter363)"
         id="circle349"
         r="20.720793"
         cy="24"
         cx="24" /><path
         style="fill:url(#linearGradient353);stroke:none;stroke-width:0.3;stroke-dasharray:none;stroke-dashoffset:7.42;stroke-opacity:0.174673;filter:url(#filter364)"
         d="m 40.871287,16.443564 c 0,0 2.454884,3.917238 1.695983,8.261153 -0.174346,0.997949 -1.482122,-6.716598 -1.695983,-8.261153 z"
         id="path351"
         sodipodi:nodetypes="csc" /><path
         style="fill:url(#linearGradient357);stroke:none;stroke-width:0.3;stroke-dasharray:none;stroke-dashoffset:7.42;stroke-opacity:0.174673;filter:url(#filter367)"
         d="m 6.1782178,32.221782 c 0,0 2.6613862,6.273268 6.7485152,7.508911 4.087128,1.235644 -0.570297,-4.752475 -1.615842,-7.033663 C 10.265347,30.415842 9.3919735,25.755914 7.8891089,23.952476 6.4633663,22.241584 4.4673267,19.10495 4.3722772,22.431683 c -0.09505,3.326733 0.2851485,7.128713 1.8059406,9.790099 z"
         id="path355"
         sodipodi:nodetypes="cssssc" /></g><g
       id="g371"
       transform="matrix(1.1090316,0,0,1.1090316,-8.5524296,4.7559496)"><circle
         style="fill:#00007e;fill-opacity:0;stroke:url(#linearGradient367);stroke-width:0.3;stroke-dasharray:none;stroke-dashoffset:7.42;stroke-opacity:1;filter:url(#filter361-2)"
         id="path1-3"
         r="20.720793"
         cy="17.352119"
         cx="29.352119" /><path
         style="fill:url(#linearGradient368);fill-opacity:1;stroke:none;stroke-width:0.1;stroke-dasharray:none;stroke-opacity:1;filter:url(#filter366-7)"
         d="m 34.15212,-1.0399596 c 0,0 6.938614,1.2356436 11.120792,7.9841582 C 49.45509,13.692714 34.15212,-1.0399596 34.15212,-1.0399596 Z"
         id="path2-6" /><circle
         style="fill:#00007e;fill-opacity:0;stroke:url(#linearGradient369);stroke-width:0.3;stroke-dasharray:none;stroke-dashoffset:7.42;stroke-opacity:1"
         id="circle349-1"
         r="20.720793"
         cy="17.352119"
         cx="29.352119" /><path
         style="fill:url(#linearGradient370);stroke:none;stroke-width:0.3;stroke-dasharray:none;stroke-dashoffset:7.42;stroke-opacity:0.174673;filter:url(#filter364-7)"
         d="m 46.223407,9.7956836 c 0,0 2.454884,3.9172384 1.695983,8.2611534 -0.174346,0.997949 -1.482122,-6.716598 -1.695983,-8.2611534 z"
         id="path351-2"
         sodipodi:nodetypes="csc" /><path
         style="fill:url(#linearGradient371);stroke:none;stroke-width:0.3;stroke-dasharray:none;stroke-dashoffset:7.42;stroke-opacity:0.174673;filter:url(#filter367-2)"
         d="m 11.530337,25.573902 c 0,0 2.661387,6.273268 6.748516,7.508911 4.087128,1.235644 -0.570297,-4.752475 -1.615842,-7.033663 -1.045544,-2.281188 -1.918918,-6.941116 -3.421782,-8.744554 -1.425743,-1.710892 -3.4217827,-4.847526 -3.5168322,-1.520793 -0.09505,3.326733 0.2851482,7.128713 1.8059402,9.790099 z"
         id="path355-9"
         sodipodi:nodetypes="cssssc" /></g><g
       inkscape:label="Layer 1"
       id="layer1-5"
       transform="matrix(0.69259846,0,0,0.69259846,7.9266202,5.4947735)"
       style="filter:url(#filter380)"><path
         style="fill:#aa4400"
         d="M 1.2916285,15.78657 H 45.924567 c 0,0 0,15.930084 -22.531741,8.180314 C 0.86108564,16.217113 1.2916285,15.78657 1.2916285,15.78657 Z"
         id="path1-6" /><path
         style="fill:#aa4400"
         d="m 1.7221713,16.79117 c 0,0 32.0036827,10.76357 31.2861117,15.643056 -0.717572,4.879485 -21.383627,4.735971 -21.383627,4.735971 0,0 -2.3106841,0.829546 -7.3192278,-0.287029 -7.396205,-1.648867 -1.578657,-5.597057 -2.5832569,-20.091998 z"
         id="path2-9"
         sodipodi:nodetypes="cscsc" /><path
         style="fill:#aa4400"
         d="m 45.35051,21.957684 c 0,0 -8.036799,7.606257 -12.916284,6.314628 -4.879485,-1.291628 4.735971,3.587857 3.587856,4.735971 -1.148114,1.148114 -9.615456,3.157314 -8.467342,3.587857 1.148115,0.430542 16.217113,2.296228 15.78657,-0.287029 -0.430542,-2.583257 2.0092,-14.351427 2.0092,-14.351427 z"
         id="path3"
         sodipodi:nodetypes="cssssc" /></g><g
       inkscape:label="Layer 1"
       id="layer1-5-7"
       transform="matrix(0.69259846,0,0,0.69259846,7.9266202,5.4947735)"><path
         style="fill:#aa4400"
         d="M 1.2916285,15.78657 H 45.924567 c 0,0 0,15.930084 -22.531741,8.180314 C 0.86108564,16.217113 1.2916285,15.78657 1.2916285,15.78657 Z"
         id="path1-6-1" /><path
         style="fill:#aa4400"
         d="m 1.7221713,16.79117 c 0,0 32.0036827,10.76357 31.2861117,15.643056 -0.717572,4.879485 -21.383627,4.735971 -21.383627,4.735971 0,0 -2.3106841,0.829546 -7.3192278,-0.287029 -7.396205,-1.648867 -1.578657,-5.597057 -2.5832569,-20.091998 z"
         id="path2-9-7"
         sodipodi:nodetypes="cscsc" /><path
         style="fill:#aa4400"
         d="m 45.35051,21.957684 c 0,0 -8.036799,7.606257 -12.916284,6.314628 -4.879485,-1.291628 4.735971,3.587857 3.587856,4.735971 -1.148114,1.148114 -9.615456,3.157314 -8.467342,3.587857 1.148115,0.430542 16.217113,2.296228 15.78657,-0.287029 -0.430542,-2.583257 2.0092,-14.351427 2.0092,-14.351427 z"
         id="path3-2"
         sodipodi:nodetypes="cssssc" /></g></g></svg>
