<?xml version="1.0" encoding="UTF-8" standalone="no"?>
<!-- Created with Inkscape (http://www.inkscape.org/) -->

<svg
   width="48"
   height="48"
   viewBox="0 0 48 48"
   version="1.1"
   id="svg1"
   inkscape:version="1.4.2 (2aeb623e1d, 2025-05-12)"
   sodipodi:docname="Help.svg"
   xmlns:inkscape="http://www.inkscape.org/namespaces/inkscape"
   xmlns:sodipodi="http://sodipodi.sourceforge.net/DTD/sodipodi-0.dtd"
   xmlns="http://www.w3.org/2000/svg"
   xmlns:svg="http://www.w3.org/2000/svg">
  <sodipodi:namedview
     id="namedview1"
     pagecolor="#ffffff"
     bordercolor="#000000"
     borderopacity="0.25"
     inkscape:showpageshadow="2"
     inkscape:pageopacity="0.0"
     inkscape:pagecheckerboard="0"
     inkscape:deskcolor="#d1d1d1"
     inkscape:document-units="px"
     inkscape:zoom="13.935896"
     inkscape:cx="20.917205"
     inkscape:cy="25.007362"
     inkscape:window-width="1366"
     inkscape:window-height="699"
     inkscape:window-x="0"
     inkscape:window-y="0"
     inkscape:window-maximized="1"
     inkscape:current-layer="layer1" />
  <defs
     id="defs1" />
  <g
     inkscape:label="Layer 1"
     inkscape:groupmode="layer"
     id="layer1">
    <path
       d="M 24,2.6894531 A 21.310781,21.310781 0 0 0 2.6894531,23.949219 H 45.310547 A 21.310781,21.310781 0 0 0 24,2.6894531 Z"
       style="fill:#3771c8;stroke-width:1.16667"
       id="path2" />
    <path
       d="M 45.310547,23.949219 H 2.6894531 a 21.310781,21.310781 0 0 0 0,0.05078 A 21.310781,21.310781 0 0 0 24,45.310547 21.310781,21.310781 0 0 0 45.310547,24 a 21.310781,21.310781 0 0 0 0,-0.05078 z"
       style="fill:#5f8dd3"
       id="path4" />
    <path
       id="text5"
       style="font-weight:800;font-size:42.6667px;font-family:'JetBrains Mono';-inkscape-font-specification:'JetBrains Mono Ultra-Bold';text-align:center;writing-mode:lr-tb;direction:ltr;text-anchor:middle;fill:#ffffff;stroke:#000000;stroke-opacity:1;stroke-width:0;stroke-dasharray:none"
       d="M 23.488281 8.5976562 C 22.151391 8.5976562 20.913169 8.7389928 19.775391 9.0234375 C 18.666056 9.3078822 17.656317 9.677701 16.746094 10.132812 L 17.685547 12.779297 C 18.510436 12.295741 19.376886 11.953018 20.287109 11.753906 C 21.197332 11.526351 22.109308 11.414062 23.019531 11.414062 C 24.612421 11.414062 25.807071 11.840025 26.603516 12.693359 C 27.428405 13.518249 27.839844 14.557037 27.839844 15.808594 C 27.839844 16.775706 27.613315 17.642156 27.158203 18.410156 C 26.703092 19.178157 26.133839 19.917795 25.451172 20.628906 C 24.768505 21.311573 24.085011 22.022163 23.402344 22.761719 C 22.748121 23.47283 22.193393 24.256041 21.738281 25.109375 C 21.28317 25.934265 21.056641 26.88786 21.056641 27.96875 C 21.056641 28.139417 21.071165 28.309802 21.099609 28.480469 C 21.128054 28.651136 21.128054 28.821521 21.099609 28.992188 L 23.957031 28.992188 C 23.957031 27.769075 24.200038 26.701239 24.683594 25.791016 C 25.195594 24.852348 25.806466 24.000422 26.517578 23.232422 C 27.257134 22.464421 27.982248 21.710259 28.693359 20.970703 C 29.432915 20.202703 30.043788 19.392396 30.527344 18.539062 C 31.0109 17.657284 31.253906 16.647544 31.253906 15.509766 C 31.253906 14.741765 31.139665 13.958554 30.912109 13.162109 C 30.684554 12.33722 30.271162 11.583058 29.673828 10.900391 C 29.104939 10.217723 28.309157 9.6629951 27.285156 9.2363281 C 26.2896 8.8096611 25.024282 8.5976562 23.488281 8.5976562 z M 22.847656 33.34375 C 22.051211 33.34375 21.355146 33.628376 20.757812 34.197266 C 20.188923 34.73771 19.904297 35.462824 19.904297 36.373047 C 19.904297 37.254825 20.188923 37.979939 20.757812 38.548828 C 21.355146 39.117717 22.051211 39.402344 22.847656 39.402344 C 23.672546 39.402344 24.370564 39.117717 24.939453 38.548828 C 25.536787 37.979939 25.833984 37.254825 25.833984 36.373047 C 25.833984 35.462824 25.536787 34.73771 24.939453 34.197266 C 24.370564 33.628376 23.672546 33.34375 22.847656 33.34375 z " />
  </g>
</svg>
